# xmcd
#
# Track frame offsets:
#	150
#	21310
#	43074
#	63746
#	81247
#	104203
#	119848
#	137014
#	157216
#	174352
#	195154
#	213728
#	234248
#	251529
#	269073
#	292751
#
# Disc length: 4177 seconds
#
# Revision: 0
# Processed by: cddbd v1.4PL0 Copyright (c) Steve Scherf et al.
# Submitted via: dBpowerAMP V4.0
#
DISCID=f7104f10
DTITLE=Ricky Martin - Sound Loaded
DYEAR=1900
DGENRE=
TTITLE0=She Bangs
TTITLE1=Saint Tropez
TTITLE2=Come To Me 
TTITLE3=Loaded 
TTITLE4=Nobody Wants To Be Lonely
TTITLE5=Amor de Loca Juventud 
TTITLE6=Jezabel 
TTITLE7=The Touch
TTITLE8=One Night Man
TTITLE9=She Bangs (Spanish Version)
TTITLE10=Are You In It For Love
TTITLE11=Vem A Mí (Come To Me)
TTITLE12=If You Ever Saw Her 
TTITLE13=Dame Más (Loaded) 
TTITLE14=Cambia La Piel
TTITLE15=La Bomba
EXTD=
EXTT0=
EXTT1=
EXTT2=
EXTT3=
EXTT4=
EXTT5=
EXTT6=
EXTT7=
EXTT8=
EXTT9=
EXTT10=
EXTT11=
EXTT12=
EXTT13=
EXTT14=
EXTT15=
PLAYORDER=
